Coordinates
version=1
nRows=29
nColumns=20
inDegrees=yes

Units are S.I. units (second, meters, Newtons, ...)
Angles are in degrees.

endheader
time	pelvis_tilt	pelvis_list	pelvis_rotation	pelvis_tx	pelvis_ty	pelvis_tz	hip_flexion_r	hip_adduction_r	hip_rotation_r	knee_angle_r	ankle_angle_r	hip_flexion_l	hip_adduction_l	hip_rotation_l	knee_angle_l	ankle_angle_l	lumbar_extension	lumbar_bending	lumbar_rotation
      0.91000000	      0.29818644	     -3.31412725	      0.53905013	     -0.79529806	      0.88392803	     -0.31724339	     -8.81465965	      5.01643283	     -9.77306231	      2.36847870	      8.66687943	     27.35596654	     -3.26340287	      1.72871732	    -52.58038831	     13.97447758	     -3.70618595	      8.24666762	      4.81849942
      0.92000000	      0.31118429	     -3.33077293	      0.05376607	     -0.78415939	      0.88294086	     -0.31566282	     -9.78601077	      5.08330893	     -9.37482338	      2.70102468	      8.99517198	     27.94647219	     -3.67363267	      0.69931147	    -49.31538734	     13.93264451	     -4.02403691	      8.12159562	      4.86238304
      0.93000000	      0.24770542	     -3.40319674	     -0.46996136	     -0.77299579	      0.88167987	     -0.31401455	    -10.64926473	      5.18790434	     -8.99718093	      2.97324521	      9.32952689	     28.49567939	     -4.18333148	     -0.39968198	    -45.82547214	     13.58639576	     -4.26492077	      8.03177014	      4.92727980
      0.94000000	      0.19458924	     -3.52217822	     -1.02120852	     -0.76175591	      0.88025777	     -0.31235386	    -11.52189792	      5.31708574	     -8.57461852	      3.22202002	      9.65016136	     28.90262752	     -4.75286599	     -1.52094743	    -42.14458504	     12.96466467	     -4.52564777	      7.97109884	      5.00604970
      0.95000000	      0.22395445	     -3.69813320	     -1.59325020	     -0.75037111	      0.87874971	     -0.31067873	    -12.51316064	      5.48292389	     -8.08719972	      3.49936058	      9.97234671	     29.10209302	     -5.38452851	     -2.66749548	    -38.35154372	     12.10579267	     -4.88221484	      7.94403568	      5.11493764
      0.96000000	      0.18246641	     -3.89895722	     -2.24587325	     -0.73881518	      0.87699793	     -0.30896004	    -13.40351280	      5.63415712	     -7.58617274	      3.69302540	     10.30012469	     29.26407033	     -6.05929131	     -3.88205787	    -34.53861206	     11.11653071	     -5.14924546	      7.91867666	      5.32428740
      0.97000000	      0.26340894	     -4.14163804	     -2.91798571	     -0.72705270	      0.87523765	     -0.30726214	    -14.45060048	      5.79276630	     -7.02645399	      3.89210682	     10.63015846	     29.20759659	     -6.75677388	     -5.11053340	    -30.81460005	     10.07596668	     -5.55114915	      7.90490235	      5.55193410
      0.98000000	      0.28348592	     -4.37944613	     -3.67939912	     -0.71506883	      0.87329973	     -0.30555742	    -15.41109964	      5.89355166	     -6.42471496	      4.00921044	     10.97395664	     29.12272205	     -7.43883827	     -6.33518090	    -27.26796704	      9.14435859	     -5.86549854	      7.86339987	      5.90577388
      0.99000000	      0.34629174	     -4.62779022	     -4.45092204	     -0.70284928	      0.87132116	     -0.30389558	    -16.41939051	      5.96831058	     -5.81294360	      4.08570282	     11.31516022	     28.93882752	     -8.09081256	     -7.49210968	    -24.02603133	      8.37512657	     -6.20617249	      7.79871506	      6.29175482
      1.00000000	      0.45606767	     -4.86780128	     -5.23697527	     -0.69039524	      0.86935257	     -0.30226098	    -17.47524858	      5.99310285	     -5.19137283	      4.11856437	     11.64688896	     28.65916241	     -8.69546436	     -8.54869372	    -21.18226071	      7.84788457	     -6.57546250	      7.68439330	      6.70919507
      1.01000000	      0.56428823	     -5.08832993	     -6.02297187	     -0.67771497	      0.86737671	     -0.30065757	    -18.51597859	      5.96481751	     -4.58743879	      4.09353767	     11.95955816	     28.35704787	     -9.24943691	     -9.50635878	    -18.82573517	      7.54981086	     -6.90936968	      7.51388295	      7.14592855
      1.02000000	      0.59984881	     -5.31344073	     -6.79425497	     -0.66485505	      0.86534622	     -0.29907048	    -19.45459920	      5.92490292	     -3.98059159	      3.98772632	     12.29856111	     28.14379640	     -9.79615924	    -10.38012634	    -17.05186138	      7.35889223	     -7.13165663	      7.32681459	      7.56549691
      1.03000000	      0.78831924	     -5.42364957	     -7.53081074	     -0.65169816	      0.86359086	     -0.29751713	    -20.54908033	      5.72492490	     -3.47661602	      3.86997156	     12.46360334	     27.71484070	    -10.17952533	    -11.16998464	    -15.77878706	      7.39638926	     -7.46503766	      6.94469858	      8.01641930
      1.04000000	      0.85754866	     -5.53308517	     -8.24038315	     -0.63837926	      0.86179087	     -0.29597057	    -21.47891396	      5.51931547	     -2.97345841	      3.65709507	     12.64167647	     27.44848172	    -10.56624249	    -11.87653258	    -15.13692135	      7.36618204	     -7.62304955	      6.55130058	      8.43724943
      1.05000000	      0.90630725	     -5.60076343	     -8.89588599	     -0.62485381	      0.86009559	     -0.29446116	    -22.35974385	      5.26198322	     -2.51657489	      3.38584725	     12.76620751	     27.22385669	    -10.89197700	    -12.47188962	    -15.06035276	      7.22728407	     -7.70331666	      6.08914162	      8.82531724
      1.06000000	      0.92603658	     -5.62311009	     -9.49718502	     -0.61115599	      0.85853353	     -0.29301861	    -23.15287440	      4.94777465	     -2.09617074	      3.00727593	     12.81905558	     27.04736459	    -11.14275185	    -12.86962899	    -15.47929343	      6.87890046	     -7.70264683	      5.56418178	      9.17265606
      1.07000000	      0.87325612	     -5.60318997	    -10.02346539	     -0.59727749	      0.85707970	     -0.29168305	    -23.81092970	      4.59829418	     -1.73267377	      2.52763311	     12.78103886	     26.96099688	    -11.30214406	    -12.96063206	    -16.28522405	      6.21515655	     -7.56401497	      4.99982740	      9.49368467
      1.08000000	      0.80417528	     -5.54569639	    -10.42797218	     -0.58322591	      0.85580735	     -0.29054393	    -24.39392318	      4.22421485	     -1.38955892	      1.94914373	     12.66069012	     26.93107743	    -11.34167345	    -12.72612881	    -17.42249639	      5.34676101	     -7.35679594	      4.40799751	      9.68045348
      1.09000000	      0.73533415	     -5.41917754	    -10.80736218	     -0.56903804	      0.85483682	     -0.28952697	    -24.86095519	      3.75471985	     -1.02076052	      1.19049519	     12.45252919	     26.86670528	    -11.24207826	    -12.18950578	    -18.70002615	      4.33836860	     -7.10613389	      3.74596409	      9.92261398
      1.10000000	      0.66320574	     -5.24046689	    -11.10409044	     -0.55473749	      0.85418527	     -0.28872027	    -25.18778729	      3.23736229	     -0.64413302	      0.21698564	     12.13029891	     26.79382784	    -10.99445368	    -11.36772819	    -20.05107140	      3.29779043	     -6.81410764	      3.04736642	     10.11327580
      1.11000000	      0.54196084	     -5.01156086	    -11.26357784	     -0.54033900	      0.85380436	     -0.28819848	    -25.29072710	      2.71873022	     -0.37913439	     -1.02830045	     11.68421157	     26.77934016	    -10.58603332	    -10.26359563	    -21.42667970	      2.38353117	     -6.43036429	      2.33345965	     10.21480543
      1.12000000	      0.47194663	     -4.75391604	    -11.39190047	     -0.52589156	      0.85390826	     -0.28782780	    -25.24813571	      2.16362946	     -0.03680625	     -2.57898299	     10.97502737	     26.62919039	    -10.08350808	     -9.10026746	    -22.69487291	      1.74648046	     -6.08913563	      1.59900847	     10.34251615
      1.13000000	      0.38560011	     -4.49035234	    -11.42153033	     -0.51143500	      0.85438895	     -0.28767783	    -24.92708102	      1.65361871	      0.19398009	     -4.55778609	     10.07077654	     26.43343156	     -9.51176179	     -7.90872329	    -23.84537699	      1.53896301	     -5.72183621	      0.89382648	     10.38724766
      1.14000000	      0.28297275	     -4.25129180	    -11.40407369	     -0.49703003	      0.85526038	     -0.28765207	    -24.32290933	      1.20999254	      0.40707930	     -6.95737760	      8.94121316	     26.15942692	     -8.95102347	     -6.81616498	    -24.84567825	      1.69656768	     -5.34373602	      0.24588634	     10.46487557
      1.15000000	      0.26465548	     -4.00967851	    -11.42331654	     -0.48271627	      0.85665533	     -0.28761041	    -23.49164519	      0.75801566	      0.57781297	     -9.83168775	      7.47570390	     25.64461548	     -8.43406382	     -6.10387348	    -25.62303887	      2.21029817	     -5.06821201	     -0.40688750	     10.60254259
      1.16000000	      0.27035136	     -3.77911085	    -11.45043705	     -0.46856452	      0.85843280	     -0.28760153	    -22.36401125	      0.33735193	      0.67929645	    -13.18340614	      5.76112147	     24.96983401	     -7.97392538	     -5.71231090	    -26.18222779	      2.97708790	     -4.83727330	     -1.02731333	     10.77627665
      1.17000000	      0.27605401	     -3.54503018	    -11.51340036	     -0.45462080	      0.86049956	     -0.28758005	    -20.91959303	     -0.06532043	      0.78135560	    -16.97085158	      3.90357052	     24.15273152	     -7.56845296	     -5.63921992	    -26.50158942	      3.89465303	     -4.61897391	     -1.62607935	     10.98385254
      1.18000000	      0.25160010	     -3.30774886	    -11.62832274	     -0.44094260	      0.86273633	     -0.28755943	    -19.13807554	     -0.44307372	      0.95303912	    -21.14254937	      2.08414828	     23.24943349	     -7.22690297	     -5.89294098	    -26.61544746	      4.85431314	     -4.38627969	     -2.18421926	     11.23191306
      1.19000000	      0.25434839	     -3.03578212	    -11.78515549	     -0.42750752	      0.86515110	     -0.28754347	    -17.14589137	     -0.80877629	      1.31604325	    -25.53422056	      0.42895865	     22.18650439	     -6.86080412	     -6.30120252	    -26.47879367	      5.81420204	     -4.19104231	     -2.75344225	     11.51815329
